<svg width="722" height="32" viewBox="0 0 722 32" fill="none" xmlns="http://www.w3.org/2000/svg">
<line y1="15.5" x2="316" y2="15.5" stroke="#1D1E24" stroke-opacity="0.3"/>
<path d="M356.963 8.90909C356.963 9.99621 356.764 10.9309 356.366 11.7131C355.969 12.492 355.424 13.0919 354.731 13.5128C354.041 13.9304 353.258 14.1392 352.379 14.1392C351.498 14.1392 350.71 13.9304 350.018 13.5128C349.328 13.0919 348.785 12.4903 348.387 11.7081C347.989 10.9259 347.79 9.9929 347.79 8.90909C347.79 7.82197 347.989 6.88897 348.387 6.11008C348.785 5.32789 349.328 4.72798 350.018 4.31037C350.71 3.88944 351.498 3.67898 352.379 3.67898C353.258 3.67898 354.041 3.88944 354.731 4.31037C355.424 4.72798 355.969 5.32789 356.366 6.11008C356.764 6.88897 356.963 7.82197 356.963 8.90909ZM355.442 8.90909C355.442 8.08049 355.308 7.38281 355.039 6.81605C354.774 6.24598 354.409 5.8151 353.945 5.52344C353.485 5.22846 352.963 5.08097 352.379 5.08097C351.793 5.08097 351.269 5.22846 350.808 5.52344C350.348 5.8151 349.983 6.24598 349.714 6.81605C349.449 7.38281 349.317 8.08049 349.317 8.90909C349.317 9.73769 349.449 10.437 349.714 11.0071C349.983 11.5739 350.348 12.0047 350.808 12.2997C351.269 12.5914 351.793 12.7372 352.379 12.7372C352.963 12.7372 353.485 12.5914 353.945 12.2997C354.409 12.0047 354.774 11.5739 355.039 11.0071C355.308 10.437 355.442 9.73769 355.442 8.90909ZM358.759 14V6.36364H360.196V7.5767H360.275C360.415 7.16572 360.66 6.84257 361.011 6.60724C361.366 6.36861 361.767 6.24929 362.214 6.24929C362.307 6.24929 362.416 6.2526 362.542 6.25923C362.672 6.26586 362.773 6.27415 362.846 6.28409V7.70597C362.786 7.68939 362.68 7.67116 362.528 7.65128C362.375 7.62808 362.223 7.61648 362.07 7.61648C361.719 7.61648 361.406 7.69105 361.131 7.8402C360.859 7.98603 360.643 8.18987 360.484 8.4517C360.325 8.71023 360.246 9.00521 360.246 9.33665V14H358.759Z" fill="#1D1E24" fill-opacity="0.3"/>
<line x1="406" y1="15.5" x2="722" y2="15.5" stroke="#1D1E24" stroke-opacity="0.3"/>
</svg>
