<svg width="63" height="52" viewBox="0 0 63 52" fill="none" xmlns="http://www.w3.org/2000/svg">
<path opacity="0.5" fill-rule="evenodd" clip-rule="evenodd" d="M30.1381 0.0912703C35.685 0.867778 37.6855 6.32471 41.93 9.21226C45.2165 11.4481 49.1544 12.794 52.2876 15.1596C56.3494 18.2261 62.9416 20.7137 62.9997 25.1193C63.0575 29.5117 55.5646 31.4845 52.5515 35.1977C49.6997 38.7122 49.6791 43.4049 45.8265 46.2827C41.5953 49.4433 35.9861 51.6163 30.1381 51.94C24.14 52.2721 17.5416 51.257 13.1072 48.0938C8.78815 45.0129 9.33669 39.6974 7.07618 35.4894C5.14763 31.8993 1.60283 28.9559 0.765386 25.1193C-0.158992 20.8845 -0.7476 16.1911 2.05633 12.492C4.85635 8.79812 10.8243 7.64421 15.6154 5.52846C20.3688 3.4294 24.76 -0.661611 30.1381 0.0912703Z" fill="#FFF39D"/>
</svg>
